HIERARCHY
ROOT Hips
{
	OFFSET -3.958830 18.904000 13.208200
	CHANNELS 6 Xposition Yposition Zposition Zrotation Yrotation Xrotation 
	JOINT LHipJoint
	{
		OFFSET 0.000000 0.000000 0.000000
		CHANNELS 3 Zrotation Yrotation Xrotation
		JOINT LeftUpLeg
		{
			OFFSET 1.800000 -1.400000 0.085000
			CHANNELS 3 Zrotation Yrotation Xrotation
			JOINT LeftLeg
			{
				OFFSET 2.215000 -6.000000 0.000000
				CHANNELS 3 Zrotation Yrotation Xrotation
				JOINT LeftFoot
				{
					OFFSET 2.500000 -6.900000 0.000000
					CHANNELS 3 Zrotation Yrotation Xrotation
					JOINT LeftToeBase
					{
						OFFSET 0.200000 -0.500000 1.950000
						CHANNELS 3 Zrotation Yrotation Xrotation
						End Site
						{
							OFFSET 0.000000 0.000000 0.000000
						}
					}
				}
			}
		}
	}
	JOINT RHipJoint
	{
		OFFSET 0.000000 0.000000 0.000000
		CHANNELS 3 Zrotation Yrotation Xrotation
		JOINT RightUpLeg
		{
			OFFSET -1.800000 -1.400000 0.085000
			CHANNELS 3 Zrotation Yrotation Xrotation
			JOINT RightLeg
			{
				OFFSET -2.215000 -6.000000 0.000000
				CHANNELS 3 Zrotation Yrotation Xrotation
				JOINT RightFoot
				{
					OFFSET -2.500000 -6.900000 0.000000
					CHANNELS 3 Zrotation Yrotation Xrotation
					JOINT RightToeBase
					{
						OFFSET -0.200000 -0.500000 1.950000
						CHANNELS 3 Zrotation Yrotation Xrotation
						End Site
						{
							OFFSET 0.000000 0.000000 0.000000
						}
					}
				}
			}
		}
	}
	JOINT LowerBack
	{
		OFFSET 0.000000 0.000000 0.000000
		CHANNELS 3 Zrotation Yrotation Xrotation
		JOINT Spine
		{
			OFFSET -0.087000 1.940000 -0.288900
			CHANNELS 3 Zrotation Yrotation Xrotation
			JOINT Spine1
			{
				OFFSET 0.000000 1.950000 0.060000
				CHANNELS 3 Zrotation Yrotation Xrotation
				JOINT Neck
				{
					OFFSET 0.000000 0.000000 0.000000
					CHANNELS 3 Zrotation Yrotation Xrotation
					JOINT Neck1
					{
						OFFSET 0.000000 1.600000 0.340000
						CHANNELS 3 Zrotation Yrotation Xrotation
						JOINT Head
						{
							OFFSET 0.000000 1.667000 -0.240000
							CHANNELS 3 Zrotation Yrotation Xrotation
							End Site
							{
								OFFSET 0.000000 0.000000 0.000000
							}
						}
					}
				}
				JOINT LeftShoulder
				{
					OFFSET 0.000000 0.000000 0.000000
					CHANNELS 3 Zrotation Yrotation Xrotation
					JOINT LeftArm
					{
						OFFSET 2.700000 1.550000 -0.730000
						CHANNELS 3 Zrotation Yrotation Xrotation
						JOINT LeftForeArm
						{
							OFFSET 5.450000 0.000000 0.000000
							CHANNELS 3 Zrotation Yrotation Xrotation
							JOINT LeftHand
							{
								OFFSET 3.450000 0.000000 0.000000
								CHANNELS 3 Zrotation Yrotation Xrotation
								JOINT LeftHandIndex1
								{
									OFFSET 0.750000 0.000000 0.000000
									CHANNELS 3 Zrotation Yrotation Xrotation
									End Site
									{
										OFFSET 0.000000 0.000000 0.000000
									}
								}
							}
						}
					}
				}
				JOINT RightShoulder
				{
					OFFSET 0.000000 0.000000 0.000000
					CHANNELS 3 Zrotation Yrotation Xrotation
					JOINT RightArm
					{
						OFFSET -2.700000 1.550000 -0.730000
						CHANNELS 3 Zrotation Yrotation Xrotation
						JOINT RightForeArm
						{
							OFFSET -5.450000 0.000000 0.000000
							CHANNELS 3 Zrotation Yrotation Xrotation
							JOINT RightHand
							{
								OFFSET -3.450000 0.000000 0.000000
								CHANNELS 3 Zrotation Yrotation Xrotation
								JOINT RightHandIndex1
								{
									OFFSET -0.750000 0.000000 0.000000
									CHANNELS 3 Zrotation Yrotation Xrotation
									End Site
									{
										OFFSET 0.000000 0.000000 0.000000
									}
								}
							}
						}
					}
				}
			}
		}
	}
}
MOTION
Frames: 13
Frame Time: 0.016667
0.501790 17.357160 -2.599390 -12.361463 -51.388030 17.149059 -14.921760 14.362956 2.953317 17.319991 -2.381203 -2.118591 -1.108746 4.936535 6.737465 0.608379 4.229217 3.366742 -0.059650 -0.343210 0.048560 18.275308 -9.881951 3.854206 5.959824 5.615321 -24.277389 10.640026 -4.283564 11.216570 0.173683 -2.013844 3.897626 -0.447340 0.146900 0.001490 -4.019411 -4.098536 -7.762747 29.584611 -12.377003 11.070015 -16.111348 -8.845053 -19.790193 4.694853 -5.417627 -13.503234 -11.498351 5.379642 35.663513 1.025450 3.576280 14.408960 3.338809 20.035577 0.497118 -31.478370 19.088696 -4.933769 3.457062 -50.512957 2.617878 -3.331672 3.578836 0.136030 0.000260 -0.109390 0.147150 -14.560530 -10.948918 13.078542 45.714194 -19.908971 -3.279337 115.332178 67.351041 80.859359 2.380490 -1.753104 0.003820 -0.196820 -0.195190 0.042420 
0.391700 17.368630 -2.643330 -11.812637 -55.561200 18.117225 -14.946745 14.479731 2.903109 15.683202 -2.236945 -2.248276 -0.668501 4.843260 7.798488 0.624611 4.071006 3.434030 -0.070610 -0.323170 -0.000890 18.236899 -9.888731 3.962287 6.665941 6.032426 -25.490348 9.582602 -4.091348 12.193940 0.212630 -1.919195 3.956565 -0.441970 0.184220 -0.029350 -4.048874 -4.232278 -7.717283 27.347744 -11.956672 10.571818 -14.144135 -9.029677 -21.649133 4.131547 -6.133215 -13.473032 -12.989130 7.451678 35.502463 3.022180 4.102970 16.266400 5.574420 23.028563 0.472647 -32.076101 19.423808 -4.472311 5.598224 -51.308678 2.281517 -3.342294 3.639316 0.104020 0.009160 -0.127840 0.178270 -15.134746 -13.784081 12.141691 45.230146 -20.637790 -2.322021 118.402382 65.868415 84.444241 2.302566 -1.947460 0.001750 -0.182360 -0.210290 0.076320 
0.248140 17.398470 -2.705480 -10.315158 -60.227020 17.436367 -15.006902 14.825462 2.881788 14.086909 -2.041499 -3.443881 -0.295411 4.974090 10.880341 0.567292 3.965058 3.424853 -0.052390 -0.299900 0.001080 18.119605 -9.887819 4.038528 7.256030 5.863776 -25.257329 8.361649 -3.833022 12.453149 0.210331 -1.802358 3.984910 -0.433130 0.150980 -0.048700 -3.915241 -4.847251 -7.684845 23.709992 -12.103478 10.962843 -11.016279 -9.407997 -24.357311 4.263064 -7.160513 -13.551615 -16.130061 9.880015 36.798168 4.417120 4.974790 16.843680 5.745266 26.153546 0.264851 -31.159227 20.400780 -3.354385 11.243456 -56.152244 0.091124 -3.334887 3.663740 0.149480 -0.031780 -0.104290 0.171510 -14.129853 -17.372377 10.949208 41.079799 -24.662570 -1.868931 124.024209 63.299076 90.478860 2.231375 -2.235248 -0.002000 -0.188200 -0.210930 0.064350 
0.095970 17.452170 -2.786860 -7.862512 -65.986652 15.342076 -15.046082 15.122312 2.859295 11.657579 -1.833597 -4.392699 0.649884 4.984843 14.908724 0.626853 3.820076 3.422531 0.032060 -0.153000 0.031930 18.015276 -10.022437 4.069228 7.601097 5.291727 -24.211292 6.669175 -3.386900 12.000255 0.157989 -1.643828 4.049033 -0.405650 0.089540 -0.052460 -3.919623 -5.207417 -7.556791 20.528695 -12.994688 10.899297 -9.273811 -10.912863 -26.899344 4.325737 -7.920545 -14.315307 -19.597664 13.870939 38.922477 6.868500 6.827550 17.110380 7.483124 28.283648 0.958340 -29.530904 21.349671 -2.286241 16.042621 -58.237004 -1.905200 -3.301822 3.696657 0.159590 -0.093850 -0.011580 0.208620 -14.558417 -20.503857 9.580713 39.556899 -25.595291 -0.882849 124.106480 63.357336 91.720936 2.173590 -2.353706 0.075740 -0.199160 -0.281430 0.101230 
-0.043300 17.487710 -2.868220 -4.820198 -72.688767 11.806490 -15.087276 15.214917 2.920562 9.127584 -1.728515 -4.346311 1.128909 5.017852 18.315071 0.628475 3.852620 3.353512 0.180160 0.016500 0.162290 17.916812 -10.250109 4.071097 7.599774 4.558100 -22.285951 5.639977 -3.105064 11.156746 0.056173 -1.624781 4.017542 -0.327740 -0.022390 -0.026070 -4.062927 -5.126441 -7.540945 17.305146 -13.202520 10.888206 -9.021645 -12.205751 -28.664773 4.523723 -7.272783 -13.876163 -19.868182 16.974312 42.635602 7.735520 10.151550 16.101190 5.865006 29.714370 1.053705 -22.694923 22.415708 1.059517 21.029649 -67.001559 -5.898461 -3.277297 3.827211 0.226210 -0.158090 0.101410 0.232340 -12.572735 -24.379450 7.623162 37.398116 -24.544023 1.057763 122.653732 64.129886 92.530437 2.119517 -2.451783 0.123040 -0.241190 -0.378410 0.075390 
-0.170980 17.507470 -2.959640 -1.510479 -79.484917 8.330570 -15.212994 15.184806 2.960126 8.043514 -1.746713 -4.605348 0.230304 5.517131 20.719292 0.627770 4.043923 3.276217 0.253740 0.148820 0.197560 17.791670 -10.310695 4.035357 7.790569 3.987661 -20.276641 5.387858 -2.900695 9.772080 -0.019346 -1.609990 4.034372 -0.240250 -0.028270 -0.083100 -4.167321 -5.095883 -7.489138 15.078352 -12.921324 10.181367 -7.365920 -12.648485 -29.070460 3.726019 -7.751480 -14.194380 -22.935269 21.369605 42.739468 10.823470 12.157570 13.607310 6.181660 29.894158 2.193433 -22.451521 22.653980 2.094873 24.478578 -71.913879 -9.617736 -3.234923 3.743409 0.285560 -0.207470 0.158050 0.265670 -10.412692 -26.281308 5.743038 36.397346 -23.302152 1.489035 125.518198 64.838929 98.578439 2.082404 -2.346974 0.092300 -0.140370 -0.421340 0.078090 
-0.259860 17.548410 -3.048290 -1.997560 -87.318410 7.995899 -15.355690 15.131527 3.061499 8.436835 -1.876519 -4.684263 -2.178654 6.598976 22.436804 0.627259 4.339433 3.096029 0.421210 0.329700 0.392800 17.622043 -10.380428 4.039454 7.843708 3.402191 -17.538914 6.388071 -3.063534 8.447944 -0.213132 -1.654506 3.968913 -0.162920 -0.206600 -0.078990 -4.175025 -5.031344 -7.665226 12.560340 -11.692188 11.167773 -5.804895 -12.005489 -29.878683 4.041295 -6.385651 -15.293732 -23.988621 24.982107 49.123420 11.258610 15.331410 7.381350 5.584342 28.103866 2.104636 -22.398373 19.506778 3.010860 30.488897 -70.849982 -12.218531 -3.070017 3.500747 0.456340 -0.348120 0.343750 0.249750 -9.338822 -26.522955 5.611039 37.726506 -22.956006 2.437012 129.456890 64.211928 104.737837 2.102381 -2.270257 0.124150 -0.111170 -0.501500 0.011710 
-0.314910 17.581660 -3.142430 169.274679 -85.675420 -163.229934 -15.514046 14.970262 3.088712 7.910047 -1.972437 -5.903361 -3.427879 7.056383 23.288362 0.596425 4.423790 3.028274 0.505990 0.425550 0.442990 17.484714 -10.459283 3.968861 7.415702 3.073179 -16.447994 6.434817 -3.025254 7.878499 -0.281720 -1.694946 3.916735 -0.096680 -0.231540 -0.084660 -4.162942 -5.131562 -7.660932 10.452941 -11.367629 11.216586 -2.712171 -12.092312 -31.297716 3.440136 -6.392594 -15.598923 -27.929446 30.443629 47.571799 13.603070 17.468660 6.287260 6.016330 27.844723 2.459602 -24.582533 18.116637 2.882864 25.819458 -62.044557 -6.674112 -3.033536 3.468194 0.515370 -0.401550 0.386880 0.256550 -7.399014 -28.048033 4.676574 35.231686 -21.421400 5.343617 133.104199 61.370659 107.820055 2.134871 -2.483713 0.122740 -0.078470 -0.516860 0.001560 
-0.325040 17.589290 -3.255020 170.865750 -76.075377 -165.590758 -15.577386 14.812804 3.089313 6.292173 -1.588540 -5.733292 -3.439859 6.688889 21.427594 0.538732 4.130231 3.121280 0.525210 0.466970 0.439440 17.449703 -10.618093 3.817701 6.160365 2.767493 -15.965260 6.462225 -3.340786 9.633064 -0.324462 -1.854051 3.833137 -0.066400 -0.219600 -0.072890 -4.243644 -4.712969 -7.669973 6.725218 -10.218637 12.341107 -0.267859 -12.442650 -32.191817 2.408184 -5.839785 -15.074469 -29.146175 34.096465 44.367016 15.443460 20.050580 4.935480 5.138658 25.644395 3.195886 -24.247113 15.592112 3.708472 31.932573 -59.183710 -8.614702 -3.035053 3.355222 0.524440 -0.409070 0.395930 0.252420 -3.291727 -28.764847 3.164406 32.751574 -19.872494 7.265273 124.645741 61.181403 96.842979 2.220758 -2.448622 0.123340 -0.066880 -0.501300 0.003770 
-0.310270 17.604790 -3.298810 177.799547 -66.348960 -174.859431 -15.660811 14.968780 3.073229 8.065729 -1.159254 -3.773408 -4.293978 6.871194 18.728697 0.532969 4.091093 3.095890 0.624900 0.576590 0.559930 17.407867 -10.405195 3.727045 7.069905 2.092648 -12.486522 5.550792 -3.476034 10.388614 -0.495634 -1.990690 3.756959 -0.039090 -0.376510 -0.067740 -3.824596 -5.016610 -7.731912 5.239320 -8.607581 15.382949 1.526950 -9.632389 -31.896817 2.936626 -3.987990 -14.697117 -30.848489 37.369695 48.050298 12.603980 23.079700 -2.112670 0.119920 21.789336 3.174997 -24.495777 13.622071 4.081148 36.110873 -64.265845 -13.193312 -2.820883 3.144306 0.647040 -0.530460 0.538790 0.233620 1.678041 -26.134308 3.652418 32.681406 -18.973112 6.925300 125.637361 61.463944 99.037474 2.364422 -2.194223 0.163970 -0.059230 -0.548250 -0.037140 
-0.330820 17.607590 -3.315330 -179.411436 -58.948551 179.834783 -15.744909 15.294026 3.100647 9.866532 -0.916984 -2.202618 -4.207033 6.824087 16.928554 0.525642 4.103165 3.038950 0.738770 0.702650 0.690780 17.357834 -10.041903 3.634959 6.762430 0.955753 -7.768171 5.860549 -3.815598 9.804840 -0.687905 -2.222547 3.641096 0.004890 -0.555590 -0.080080 -3.044956 -6.168842 -7.723397 4.101560 -7.982431 17.380211 3.482110 -6.883734 -29.022658 4.126536 -1.873097 -14.565114 -34.731516 41.134151 50.992212 8.863390 24.608410 -9.196570 -6.474355 15.994552 3.742759 -30.147263 11.557961 1.275337 47.842332 -59.221911 -18.607876 -2.548002 2.747185 0.763840 -0.666240 0.679530 0.209140 6.753395 -21.374390 4.782399 33.285523 -18.287528 4.808154 127.310351 61.784154 100.111706 2.494640 -1.957901 0.206950 -0.052890 -0.602620 -0.078660 
-0.310220 17.610340 -3.316460 -175.098487 -46.793257 172.539250 -15.863532 15.621218 3.195674 14.218587 -0.325922 1.282040 -5.445991 7.454290 14.016354 0.588451 4.639593 2.814837 0.786630 0.687590 0.852420 17.340112 -9.333429 3.529476 6.628517 -0.473697 -1.424220 7.793310 -4.670359 9.040667 -0.905953 -2.668197 3.444165 -0.019850 -0.758820 -0.076630 -1.808138 -7.843676 -7.933496 4.297855 -5.108027 19.930550 4.337234 -1.969211 -20.129514 6.009560 -0.168665 -15.290573 -37.274298 42.676601 57.093460 0.281920 25.628750 -19.066720 -17.765329 6.490940 4.887308 -32.959372 10.633966 -3.525410 66.554095 -52.511784 -28.733050 -2.429988 2.381544 0.921050 -0.796450 0.797270 0.115900 13.571795 -10.602373 7.001516 37.331897 -16.738073 -1.601694 132.068775 64.048776 104.716128 2.633602 -1.447174 0.213610 -0.067400 -0.598980 -0.184990 
-0.303280 17.563600 -3.271850 -175.911684 -34.351930 167.911303 -16.214267 15.903547 3.115667 14.405352 0.675648 6.662973 -3.631215 7.790565 15.085633 0.681596 5.272032 2.584579 0.775090 0.649840 0.940240 17.143811 -8.840083 3.257528 4.310852 -1.427102 4.581011 8.692644 -5.682848 10.645967 -0.991869 -3.374303 3.177082 -0.019900 -0.823930 -0.020100 -0.395833 -8.913571 -8.017299 0.723881 -0.743593 19.069743 6.827987 1.123117 2.661701 5.887092 -1.298358 -17.873467 -36.986087 38.681351 56.950024 -8.341700 25.762360 -22.917120 -27.071513 -9.819751 8.922630 -33.143964 4.835546 -11.925877 78.210079 -48.564620 -41.215001 -2.690368 2.398334 0.892660 -0.733670 0.786820 0.022040 19.338479 9.558518 11.330002 39.789747 -12.541367 -13.605489 141.208798 68.765440 112.817635 2.612633 -1.105256 0.225620 -0.130480 -0.551070 -0.264950 
